<?xml version="1.0" encoding="UTF-8"?>
<!-- Created with Inkscape (http://www.inkscape.org/) -->
<svg width="64mm" height="37mm" version="1.1" viewBox="0 0 64 37" xmlns="http://www.w3.org/2000/svg">
 <g transform="translate(-35 -79)">
  <path d="m46 79c1.5-0.31 3.6 2.4 5.1 5.2 1.3 2.5 2.7 6.5 4.9 6.3 5.3-0.38 11-0.15 16 1.8 3.3 1.5 15-12 17-11 1.1 0.41-4.4 9-5.8 15 0.36 2.9 0.87 5.9-0.86 8.5 0.45 1.8 0.95 1.6 1.4 4.3 1-1.2 1.8-0.59 2.9-0.41 3-3.9 5.3-1.7 7.8-0.57 5.7-0.44 5.6 8.3 1.3 7-1.6 1-3 0.75-4.2-0.37-1.4 0.78-2.7 0.9-3.9-0.091-1.9 0.24-3.8 0.69-4.7-1.6l-34 2e-3c-0.14 1.8-0.49 3.4-3.1 2.4-2 1.3-3.5 0.92-4.9 0.37-1.6 0.46-3.2 0.85-4.3-0.23-4.3-3-0.91-5.5 0.42-5.8-0.21-2.5 2.8-2.4 5.2-2.8-0.41-2-0.51-4.1 0.82-6.3-1-3.2-1.7-6.3-0.34-9.6 0.064-5.6 0.025-11 3-12z" stroke-width=".96"/>
  <path d="m64 108c-0.24 0.52-0.82 0.5-1.2 0.66-1.1 0.42-3.3 0.38-4.7-9e-3 -1.7-0.48-2.6-3.5-2.1-4.8 4.4-2.4 8.3 1.1 8 4.2z" fill="#fff" stroke-width=".96"/>
  <path d="m72 109c0.22 0.47 0.73 0.45 1.1 0.6 0.96 0.38 3 0.34 4.2-8e-3 1.5-0.43 2.3-3.1 1.9-4.4-3.9-2.1-7.5 0.99-7.2 3.8z" fill="#fff" stroke-width=".97"/>
  <rect transform="matrix(1 .081 -.063 1 0 0)" x="66" y="96" width="1.1" height="6.8" rx=".57" ry="2.8" stroke-width=".97"/>
  <rect transform="matrix(1 .023 -.02 1 0 0)" x="77" y="101" width="1.1" height="6.3" rx=".57" ry="2.6" stroke-width=".96"/>
 </g>
</svg>
